<svg width="10" height="13" viewBox="0 0 10 13" fill="none" xmlns="http://www.w3.org/2000/svg">
    <path d="M5 12.6338C5 12.6338 9.5 8.36929 9.5 5.13379C9.5 3.94031 9.02589 2.79572 8.18198 1.95181C7.33807 1.10789 6.19347 0.633789 5 0.633789C3.80653 0.633789 2.66193 1.10789 1.81802 1.95181C0.974106 2.79572 0.5 3.94031 0.5 5.13379C0.5 8.36929 5 12.6338 5 12.6338ZM5 7.38379C4.40326 7.38379 3.83097 7.14674 3.40901 6.72478C2.98705 6.30282 2.75 5.73053 2.75 5.13379C2.75 4.53705 2.98705 3.96476 3.40901 3.5428C3.83097 3.12084 4.40326 2.88379 5 2.88379C5.59674 2.88379 6.16903 3.12084 6.59099 3.5428C7.01295 3.96476 7.25 4.53705 7.25 5.13379C7.25 5.73053 7.01295 6.30282 6.59099 6.72478C6.16903 7.14674 5.59674 7.38379 5 7.38379Z"
          fill="#1C8C93"/>
    <path d="M5 7.38379C4.40326 7.38379 3.83097 7.14674 3.40901 6.72478C2.98705 6.30282 2.75 5.73053 2.75 5.13379C2.75 4.53705 2.98705 3.96476 3.40901 3.5428C3.83097 3.12084 4.40326 2.88379 5 2.88379C5.59674 2.88379 6.16903 3.12084 6.59099 3.5428C7.01295 3.96476 7.25 4.53705 7.25 5.13379C7.25 5.73053 7.01295 6.30282 6.59099 6.72478C6.16903 7.14674 5.59674 7.38379 5 7.38379Z"
          fill="#1C8C93"/>
</svg>
