<svg width="51" height="77" viewBox="0 0 51 77" fill="none" xmlns="http://www.w3.org/2000/svg">
    <path d="M25.5156 23.1546C25.4623 23.1013 25.399 23.059 25.3294 23.0301C25.2598 23.0013 25.1851 22.9865 25.1097 22.9865C25.0343 22.9865 24.9597 23.0013 24.89 23.0301C24.8204 23.059 24.7571 23.1013 24.7038 23.1546L23.4633 24.3944C23.1574 24.6989 22.9148 25.0608 22.7496 25.4594C22.5843 25.8581 22.4997 26.2854 22.5005 26.7169V37.1201C22.5005 37.2722 22.5609 37.418 22.6685 37.5256C22.7761 37.6331 22.922 37.6935 23.0742 37.6935C23.2264 37.6935 23.3723 37.6331 23.4799 37.5256C23.5875 37.418 23.6479 37.2722 23.6479 37.1201V26.7169C23.6471 26.4358 23.7021 26.1574 23.8098 25.8977C23.9174 25.638 24.0756 25.4023 24.2751 25.2041L25.5156 23.9643C25.5689 23.9112 25.6112 23.8481 25.64 23.7786C25.6689 23.7092 25.6837 23.6347 25.6837 23.5595C25.6837 23.4842 25.6689 23.4098 25.64 23.3403C25.6112 23.2708 25.5689 23.2077 25.5156 23.1546Z"
          fill="#AB0A3D"/>
    <path d="M25.714 20.4951L22.4089 19.4932C21.9405 20.3685 21.3927 21.1706 20.8174 22.0231C20.7798 22.1268 20.737 22.2286 20.6892 22.3281C20.6725 22.3601 20.6526 22.3875 20.6358 22.4195L21.5071 21.3307C20.4762 23.4998 18.9149 25.3742 16.9676 26.7809C15.0249 25.3731 13.4658 23.5015 12.4327 21.3368L12.9134 21.9361C12.8783 21.869 12.8401 21.8004 12.8127 21.7333C12.7959 21.7211 12.7837 21.7074 12.7669 21.6952C12.5757 21.473 12.424 21.2198 12.3183 20.9464C11.953 20.5197 11.6639 20.0332 11.4638 19.5084L8.07632 20.524C7.53771 20.6832 7.06533 21.0127 6.73019 21.4632C6.39504 21.9136 6.21524 22.4606 6.2178 23.0219V37.1033C6.21379 37.181 6.22564 37.2587 6.25262 37.3317C6.2796 37.4046 6.32116 37.4713 6.37476 37.5277C6.42836 37.5841 6.49288 37.6291 6.5644 37.6598C6.63592 37.6904 6.71294 37.7063 6.79077 37.7063C6.86861 37.7063 6.94563 37.6904 7.01714 37.6598C7.08866 37.6291 7.15319 37.5841 7.20679 37.5277C7.26039 37.4713 7.30194 37.4046 7.32892 37.3317C7.35591 37.2587 7.36775 37.181 7.36374 37.1033V23.0234C7.36142 22.9818 7.36142 22.94 7.36374 22.8984L9.65256 25.1858C9.85252 25.3837 10.0111 25.6193 10.119 25.8791C10.2269 26.1388 10.2821 26.4173 10.2812 26.6986V37.1018C10.2772 37.1795 10.2891 37.2572 10.316 37.3301C10.343 37.4031 10.3846 37.4698 10.4382 37.5262C10.4918 37.5826 10.5563 37.6275 10.6278 37.6582C10.6993 37.6889 10.7764 37.7047 10.8542 37.7047C10.932 37.7047 11.009 37.6889 11.0806 37.6582C11.1521 37.6275 11.2166 37.5826 11.2702 37.5262C11.3238 37.4698 11.3654 37.4031 11.3923 37.3301C11.4193 37.2572 11.4312 37.1795 11.4272 37.1018V26.7016C11.4284 26.2699 11.3439 25.8421 11.1787 25.4432C11.0134 25.0443 10.7706 24.6821 10.4643 24.3776L7.94662 21.8553C8.08419 21.7514 8.23921 21.6729 8.40439 21.6235L10.9877 20.8488C12.1114 23.7357 14.0854 26.2137 16.6487 27.9551C16.7427 28.0177 16.8531 28.0512 16.9661 28.0512C17.0791 28.0512 17.1895 28.0177 17.2835 27.9551C21.3728 25.23 22.8316 21.2042 22.9521 20.8549L25.3859 21.5915C25.4589 21.6171 25.5364 21.6276 25.6136 21.6225C25.6908 21.6173 25.7662 21.5966 25.8352 21.5616C25.9043 21.5266 25.9655 21.478 26.0152 21.4187C26.0649 21.3594 26.1021 21.2907 26.1246 21.2167C26.147 21.1427 26.1543 21.0649 26.1459 20.988C26.1374 20.9111 26.1135 20.8367 26.0756 20.7693C26.0377 20.7019 25.9865 20.6428 25.9251 20.5957C25.8638 20.5486 25.7935 20.5143 25.7185 20.4951"
          fill="#AB0A3D"/>
    <path d="M25.5156 23.1546C25.4623 23.1013 25.399 23.059 25.3294 23.0301C25.2598 23.0013 25.1851 22.9865 25.1097 22.9865C25.0343 22.9865 24.9597 23.0013 24.89 23.0301C24.8204 23.059 24.7571 23.1013 24.7038 23.1546L23.4633 24.3944C23.1574 24.6989 22.9148 25.0608 22.7496 25.4594C22.5843 25.8581 22.4997 26.2854 22.5005 26.7169V37.1201C22.5005 37.2722 22.5609 37.418 22.6685 37.5256C22.7761 37.6331 22.922 37.6935 23.0742 37.6935C23.2264 37.6935 23.3723 37.6331 23.4799 37.5256C23.5875 37.418 23.6479 37.2722 23.6479 37.1201V26.7169C23.6471 26.4358 23.7021 26.1574 23.8098 25.8977C23.9174 25.638 24.0756 25.4023 24.2751 25.2041L25.5156 23.9643C25.5689 23.9112 25.6112 23.8481 25.64 23.7786C25.6689 23.7092 25.6837 23.6347 25.6837 23.5595C25.6837 23.4842 25.6689 23.4098 25.64 23.3403C25.6112 23.2708 25.5689 23.2077 25.5156 23.1546Z"
          fill="#AB0A3D"/>
    <path d="M35.2873 20.7421C35.6352 20.7376 35.9776 20.6553 36.2895 20.5012C36.6013 20.3471 36.8747 20.1251 37.0894 19.8515C37.1368 19.7932 37.1722 19.726 37.1936 19.654C37.2151 19.5819 37.2221 19.5063 37.2143 19.4316C37.2065 19.3568 37.184 19.2843 37.1482 19.2182C37.1124 19.1521 37.0639 19.0937 37.0055 19.0464C36.9471 18.999 36.8799 18.9636 36.8078 18.9422C36.7357 18.9208 36.6601 18.9137 36.5853 18.9215C36.5104 18.9293 36.4379 18.9518 36.3718 18.9876C36.3056 19.0234 36.2472 19.0719 36.1998 19.1302C36.0956 19.2757 35.9582 19.3942 35.7989 19.476C35.6397 19.5577 35.4633 19.6004 35.2843 19.6004C35.1053 19.6004 34.9288 19.5577 34.7696 19.476C34.6104 19.3942 34.473 19.2757 34.3687 19.1302C34.2711 19.0182 34.1339 18.9484 33.9858 18.9355C33.8377 18.9227 33.6905 18.9677 33.575 19.0612C33.4595 19.1547 33.3848 19.2893 33.3666 19.4367C33.3485 19.5841 33.3883 19.7329 33.4776 19.8515C33.6924 20.1251 33.9657 20.3471 34.2775 20.5012C34.5894 20.6553 34.9318 20.7376 35.2797 20.7421"
          fill="#AB0A3D"/>
    <path d="M29.1808 29.0897C29.1055 29.0895 29.0309 29.1042 28.9613 29.1328C28.8917 29.1615 28.8285 29.2036 28.7752 29.2567C28.7219 29.3098 28.6796 29.3729 28.6507 29.4424C28.6219 29.5119 28.607 29.5864 28.607 29.6616V37.1201C28.607 37.2722 28.6675 37.418 28.7751 37.5256C28.8827 37.6331 29.0286 37.6935 29.1808 37.6935C29.3329 37.6935 29.4788 37.6331 29.5864 37.5256C29.694 37.418 29.7545 37.2722 29.7545 37.1201V29.6616C29.7545 29.5864 29.7396 29.5119 29.7108 29.4424C29.6819 29.3729 29.6396 29.3098 29.5864 29.2567C29.5331 29.2036 29.4698 29.1615 29.4002 29.1328C29.3306 29.1042 29.256 29.0895 29.1808 29.0897Z"
          fill="#AB0A3D"/>
    <path d="M41.3939 29.0897C41.3186 29.0895 41.244 29.1042 41.1744 29.1328C41.1048 29.1615 41.0416 29.2036 40.9883 29.2567C40.935 29.3098 40.8927 29.3729 40.8639 29.4424C40.835 29.5119 40.8202 29.5864 40.8202 29.6616V37.1201C40.8202 37.2722 40.8806 37.418 40.9882 37.5256C41.0958 37.6331 41.2417 37.6935 41.3939 37.6935C41.5461 37.6935 41.692 37.6331 41.7996 37.5256C41.9072 37.418 41.9676 37.2722 41.9676 37.1201V29.6616C41.9672 29.5098 41.9066 29.3643 41.799 29.2571C41.6915 29.1499 41.5458 29.0897 41.3939 29.0897Z"
          fill="#AB0A3D"/>
    <path d="M43.4432 25.1737C43.8051 24.7131 44.0018 24.1444 44.0016 23.5588C44.0013 23.0918 43.8748 22.6337 43.6355 22.2327C43.3962 21.8317 43.053 21.5027 42.6421 21.2805C42.6421 21.2485 42.6421 21.218 42.6421 21.1859C42.6425 20.8248 42.5567 20.4688 42.3916 20.1476C42.2265 19.8263 41.987 19.5492 41.693 19.3392C41.7311 19.2081 41.7677 19.0739 41.7983 18.9397C41.8757 18.5936 41.9237 18.2416 41.9417 17.8875C42.7732 16.6643 43.2481 15.2342 43.3133 13.7568C43.3786 12.2795 43.0315 10.8131 42.311 9.52156C42.6396 9.19884 42.8309 8.76182 42.845 8.3016C42.845 6.35881 39.4469 5.28524 35.8733 5.15867C35.947 4.96373 35.9847 4.75707 35.9847 4.54869C35.9847 3.86246 35.6139 3.30737 35.1576 3.30737C34.7014 3.30737 34.3321 3.86246 34.3321 4.54869C34.3316 4.75697 34.3688 4.96364 34.442 5.15867C30.8699 5.28524 27.4718 6.35881 27.4718 8.3016C27.4718 8.82923 27.7235 9.29129 28.1615 9.6893C27.4892 10.9706 27.1767 12.41 27.2573 13.8546C27.3379 15.2991 27.8086 16.6949 28.6192 17.8936C28.6384 18.2477 28.6869 18.5996 28.7642 18.9458C28.7947 19.08 28.8298 19.2126 28.8695 19.3453C28.5754 19.5552 28.3358 19.8323 28.1707 20.1536C28.0056 20.4748 27.9198 20.8309 27.9204 21.192C27.9204 21.2241 27.9204 21.2546 27.9204 21.2866C27.5868 21.4665 27.2967 21.7174 27.0705 22.0215C26.8444 22.3256 26.6877 22.6755 26.6114 23.0467C26.5352 23.4178 26.5413 23.8012 26.6293 24.1697C26.7173 24.5383 26.8851 24.883 27.1208 25.1798C26.5345 25.5308 26.0496 26.0282 25.7136 26.623C25.3776 27.2178 25.2021 27.8897 25.2043 28.5728V37.1278C25.2043 37.2799 25.2648 37.4257 25.3724 37.5332C25.48 37.6408 25.6259 37.7012 25.7781 37.7012C25.9302 37.7012 26.0761 37.6408 26.1837 37.5332C26.2913 37.4257 26.3518 37.2799 26.3518 37.1278V28.5728C26.3492 28.0073 26.5178 27.4542 26.8357 26.9863C27.1535 26.5185 27.6056 26.1577 28.1325 25.9514L28.2423 25.9072C29.9376 28.1946 32.5499 29.5564 35.2858 29.5564C38.0583 29.5564 40.6142 28.2297 42.3293 25.9072L42.4391 25.9514C42.9632 26.1589 43.4125 26.5194 43.7286 26.986C44.0446 27.4525 44.2126 28.0033 44.2107 28.5667V37.1202C44.2107 37.2722 44.2711 37.4181 44.3787 37.5256C44.4863 37.6331 44.6322 37.6936 44.7844 37.6936C44.9366 37.6936 45.0825 37.6331 45.1901 37.5256C45.2977 37.4181 45.3581 37.2722 45.3581 37.1202V28.5667C45.3603 27.8836 45.1848 27.2117 44.8489 26.6169C44.5129 26.0221 44.0279 25.5247 43.4416 25.1737M35.1607 6.4808C39.2668 6.4808 41.5068 7.67942 41.5068 8.2955C41.5068 8.91158 39.2714 10.1041 35.1607 10.1041C31.05 10.1041 28.8161 8.90548 28.8161 8.2894C28.8161 7.67332 31.0561 6.4747 35.1607 6.4747M28.3965 13.3873C28.3971 12.3216 28.6474 11.2708 29.1274 10.3191C30.609 11.0648 32.8902 11.4506 35.1607 11.4506C37.5334 11.4506 39.9214 11.0328 41.3924 10.22C41.8705 11.1312 42.1372 12.1383 42.1726 13.1665C42.208 14.1948 42.0112 15.2178 41.5968 16.1597C40.7698 14.3831 38.9342 13.8845 37.1489 13.4026C35.7039 13.0107 34.2116 12.6081 32.9314 11.5848C32.8643 11.5314 32.7861 11.4937 32.7025 11.4745C32.6189 11.4553 32.5321 11.4552 32.4485 11.4741C32.3648 11.493 32.2865 11.5304 32.2193 11.5836C32.152 11.6368 32.0976 11.7045 32.0601 11.7815C32.0601 11.7937 31.4497 12.9741 30.2809 13.5596C30.2103 13.5913 30.1468 13.6368 30.0942 13.6936C30.0417 13.7504 30.0012 13.8172 29.9751 13.8901C29.9491 13.9629 29.9381 14.0403 29.9427 14.1175C29.9474 14.1947 29.9677 14.2702 30.0023 14.3394C30.0369 14.4085 30.0851 14.47 30.1442 14.5201C30.2032 14.5701 30.2717 14.6077 30.3456 14.6306C30.4196 14.6535 30.4974 14.6612 30.5743 14.6533C30.6513 14.6453 30.7259 14.6219 30.7936 14.5844C31.5697 14.1768 32.2352 13.587 32.733 12.8658C34.0682 13.7625 35.536 14.1589 36.8529 14.5143C37.2847 14.6302 37.6814 14.7415 38.0431 14.8558H38.0064C37.6744 14.8556 37.3479 14.9411 37.0586 15.1041C36.7694 15.2671 36.5271 15.502 36.3554 15.7861C36.0257 15.6196 35.6614 15.5329 35.2919 15.5329C34.9224 15.5329 34.5582 15.6196 34.2284 15.7861C33.9914 15.3955 33.6235 15.1016 33.1901 14.9567C32.7567 14.8118 32.2859 14.8253 31.8615 14.9948C31.4371 15.1642 31.0866 15.4787 30.8725 15.8823C30.6584 16.2858 30.5944 16.7521 30.6921 17.1983C30.7898 17.6445 31.0427 18.0416 31.4058 18.3189C31.769 18.5962 32.2188 18.7358 32.6753 18.7127C33.1317 18.6896 33.5652 18.5054 33.8985 18.1929C34.2318 17.8804 34.4433 17.4598 34.4954 17.006C34.7097 16.8014 34.9947 16.6872 35.2911 16.6872C35.5876 16.6872 35.8726 16.8014 36.0869 17.006C36.1211 17.3154 36.2297 17.612 36.4035 17.8703C36.5772 18.1287 36.811 18.3412 37.0847 18.4897C37.3585 18.6382 37.6641 18.7182 37.9756 18.723C38.287 18.7279 38.595 18.6573 38.8732 18.5173C39.1515 18.3774 39.3917 18.1722 39.5733 17.9194C39.755 17.6665 39.8728 17.3735 39.9165 17.0653C39.9603 16.7571 39.9288 16.4429 39.8247 16.1495C39.7206 15.8561 39.547 15.5922 39.3187 15.3804C40.1381 15.8272 40.6432 16.4479 40.8293 17.5504C40.8199 17.59 40.8143 17.6303 40.8125 17.6709C40.7928 18.4627 40.5993 19.2405 40.2457 19.9493C39.8921 20.6581 39.3871 21.2807 38.7663 21.773C37.7825 22.5674 36.5559 23.0007 35.2911 23.0007C34.0263 23.0007 32.7998 22.5674 31.816 21.773C31.1956 21.2804 30.691 20.6577 30.3377 19.9489C29.9844 19.2402 29.7911 18.4625 29.7713 17.6709C29.7656 17.5252 29.7045 17.3872 29.6004 17.2851C28.8165 16.1415 28.3983 14.7872 28.401 13.401M38.7892 16.7925C38.7892 16.9476 38.7432 17.0992 38.6569 17.2282C38.5707 17.3571 38.4481 17.4576 38.3047 17.5168C38.1613 17.5761 38.0035 17.5916 37.8513 17.5612C37.6992 17.5308 37.5594 17.456 37.4498 17.3462C37.3402 17.2365 37.2656 17.0967 37.2355 16.9445C37.2054 16.7924 37.2212 16.6347 37.2808 16.4915C37.3404 16.3483 37.4411 16.226 37.5703 16.1401C37.6995 16.0541 37.8513 16.0084 38.0064 16.0087C38.1094 16.0087 38.2113 16.029 38.3064 16.0684C38.4014 16.1078 38.4878 16.1656 38.5605 16.2384C38.6332 16.3112 38.6908 16.3976 38.7301 16.4927C38.7693 16.5878 38.7894 16.6897 38.7892 16.7925ZM33.3617 16.7925C33.3617 16.9476 33.3157 17.0991 33.2295 17.228C33.1433 17.3569 33.0208 17.4574 32.8775 17.5167C32.7342 17.576 32.5765 17.5915 32.4244 17.5613C32.2722 17.5311 32.1325 17.4564 32.0228 17.3468C31.9131 17.2372 31.8384 17.0975 31.8081 16.9455C31.7779 16.7934 31.7934 16.6358 31.8528 16.4926C31.9121 16.3494 32.0127 16.2269 32.1416 16.1408C32.2706 16.0547 32.4222 16.0087 32.5774 16.0087C32.7854 16.0087 32.9849 16.0913 33.132 16.2383C33.279 16.3853 33.3617 16.5847 33.3617 16.7925ZM38.5878 24.4173C37.6913 25.2475 36.5141 25.7088 35.2919 25.7088C34.0697 25.7088 32.8925 25.2475 31.996 24.4173C32.3496 24.2637 32.6485 24.007 32.8536 23.6808C34.4225 24.2985 36.1674 24.2985 37.7364 23.6808C37.9414 24.007 38.2403 24.2637 38.5939 24.4173M28.2484 24.6857C28.0484 24.5181 27.8972 24.2997 27.8108 24.0535C27.7244 23.8073 27.706 23.5423 27.7576 23.2866C27.8091 23.0308 27.9286 22.7936 28.1036 22.6C28.2786 22.4064 28.5026 22.2635 28.752 22.1863C28.893 22.1415 29.0113 22.044 29.0821 21.9142C29.1529 21.7843 29.1708 21.6321 29.1319 21.4894C29.104 21.3942 29.0886 21.2958 29.0862 21.1966C29.0857 20.9373 29.1758 20.686 29.341 20.486C29.7684 21.327 30.3684 22.0685 31.1018 22.6621C31.3294 22.8449 31.5685 23.013 31.8175 23.1653C31.735 23.2606 31.6301 23.3339 31.5123 23.3788L28.2484 24.6857ZM35.298 28.4218C32.9863 28.4218 30.8516 27.3544 29.3593 25.4756L30.847 24.8809C31.4095 25.5026 32.0962 25.9995 32.8627 26.3396C33.6292 26.6797 34.4586 26.8555 35.2972 26.8555C36.1359 26.8555 36.9653 26.6797 37.7318 26.3396C38.4983 25.9995 39.185 25.5026 39.7475 24.8809L41.2367 25.4756C39.7444 27.3544 37.6051 28.4218 35.298 28.4218ZM42.3476 24.6857L39.0669 23.3712C38.9496 23.3255 38.8449 23.2523 38.7618 23.1577C39.8244 22.5131 40.6846 21.5831 41.2444 20.4738C41.4095 20.6738 41.4997 20.9251 41.4992 21.1844C41.4968 21.2836 41.4814 21.382 41.4534 21.4772C41.4145 21.6197 41.4322 21.7717 41.5027 21.9016C41.5732 22.0314 41.6911 22.129 41.8318 22.1741C42.0813 22.2511 42.3055 22.3939 42.4806 22.5874C42.6558 22.7809 42.7755 23.0181 42.8272 23.2739C42.8789 23.5297 42.8606 23.7947 42.7743 24.041C42.6881 24.2873 42.5369 24.5058 42.3369 24.6735"
          fill="#AB0A3D"/>
    <path fill-rule="evenodd" clip-rule="evenodd"
          d="M0.666656 39.6638H50.6667V59.9564C50.6667 62.773 47.4181 64.7615 41.1131 64.7615H35.2324C30.7066 64.7615 27.8136 65.6292 25.6773 66.8004C23.5411 65.6292 20.6282 64.7615 16.1238 64.7615H10.2431C3.93661 64.7615 0.666656 62.7791 0.666656 59.9564V39.6638Z"
          fill="#AB0A3D"/>
    <path d="M8.57986 47.7552L8.6821 46.7823H8.6409L8.34946 47.5661L7.3378 49.3915H7.03873L5.97214 47.5585L5.67307 46.7823H5.6395L5.7753 47.7476V50.2943H4.89182V45.3961H5.74173L7.01126 47.6363L7.23404 48.1959H7.2615L7.46597 47.621L8.66836 45.3961H9.50912V50.2943H8.57986V47.7552Z"
          fill="#FBFBFB"/>
    <path d="M10.1759 47.8452C10.1759 47.0319 10.3499 46.4036 10.6978 45.9603C11.0457 45.5171 11.5436 45.2965 12.1916 45.2985C12.4982 45.2915 12.8023 45.354 13.0812 45.4815C13.3311 45.5992 13.5481 45.7768 13.7129 45.9985C13.8912 46.2396 14.0207 46.513 14.0944 46.8036C14.1797 47.1441 14.2207 47.4942 14.2165 47.8452C14.2165 48.6585 14.041 49.2873 13.69 49.7315C13.3391 50.1758 12.8421 50.3959 12.1992 50.3919C11.8883 50.4001 11.5795 50.3381 11.2959 50.2104C11.0469 50.0918 10.831 49.9137 10.6673 49.6919C10.4935 49.4503 10.3681 49.1774 10.298 48.8882C10.2127 48.5472 10.1717 48.1967 10.1759 47.8452ZM11.1525 47.8452C11.1505 48.0738 11.1709 48.3022 11.2135 48.5268C11.247 48.7141 11.3104 48.8949 11.4012 49.0621C11.4772 49.2043 11.5879 49.325 11.7232 49.4128C11.8638 49.4995 12.0265 49.5434 12.1916 49.5394C12.3424 49.544 12.4919 49.5096 12.6255 49.4396C12.7592 49.3697 12.8725 49.2664 12.9546 49.1399C13.1356 48.8745 13.2262 48.443 13.2262 47.8452C13.2272 47.6222 13.2078 47.3997 13.1682 47.1803C13.1358 46.993 13.0756 46.8115 12.9896 46.642C12.9149 46.497 12.8047 46.3732 12.6692 46.2821C12.5251 46.1917 12.3571 46.1466 12.187 46.1525C12.0352 46.148 11.8848 46.1833 11.751 46.255C11.6171 46.3267 11.5044 46.4323 11.4241 46.5612C11.244 46.8341 11.1525 47.2626 11.1525 47.8452Z"
          fill="#FBFBFB"/>
    <path d="M18.0937 50.093C17.928 50.209 17.739 50.2876 17.5398 50.3232C17.3128 50.3693 17.0818 50.3923 16.8501 50.3919C16.5738 50.3929 16.2993 50.347 16.0384 50.2561C15.7818 50.1646 15.5507 50.0136 15.3639 49.8154C15.157 49.587 15.001 49.3172 14.9062 49.024C14.7813 48.6438 14.7225 48.2452 14.7322 47.8452C14.7209 47.4346 14.7867 47.0254 14.926 46.639C15.036 46.3448 15.2076 46.0775 15.4295 45.8551C15.6246 45.6638 15.8596 45.518 16.1177 45.4281C16.3632 45.3434 16.6209 45.2996 16.8806 45.2985C17.1118 45.2955 17.3427 45.3144 17.5703 45.3549C17.7296 45.383 17.8856 45.4275 18.0357 45.4876L17.8526 46.2989C17.7351 46.2439 17.6102 46.2064 17.4818 46.1876C17.3101 46.1624 17.1366 46.1506 16.963 46.1525C16.7903 46.1467 16.6185 46.181 16.4613 46.2527C16.304 46.3244 16.1655 46.4316 16.0567 46.5658C15.8278 46.8423 15.7134 47.2703 15.7134 47.8498C15.711 48.0821 15.7387 48.3138 15.7957 48.5391C15.8418 48.7316 15.9258 48.9131 16.0429 49.0728C16.152 49.2185 16.2943 49.3361 16.458 49.4159C16.6364 49.5013 16.8324 49.5436 17.0302 49.5394C17.2048 49.5433 17.3791 49.5217 17.5475 49.4754C17.676 49.4383 17.7992 49.3844 17.9137 49.3153L18.0937 50.093Z"
          fill="#FBFBFB"/>
    <path d="M19.8439 48.202H19.5998V50.2943H18.6705V45.3961H19.5998V47.5661L19.8164 47.467L21.1272 45.3961H22.1877L20.8022 47.4533L20.4359 47.7202L20.8159 47.9931L22.3982 50.2943H21.2508L19.8439 48.202Z"
          fill="#FBFBFB"/>
    <path d="M22.5539 47.8452C22.5539 47.0319 22.7283 46.4036 23.0772 45.9603C23.4262 45.5171 23.9241 45.2965 24.5711 45.2985C24.8776 45.2915 25.1818 45.354 25.4607 45.4815C25.7106 45.5992 25.9276 45.7768 26.0924 45.9985C26.2679 46.2402 26.3949 46.5136 26.4662 46.8036C26.5515 47.1441 26.5925 47.4942 26.5883 47.8452C26.5883 48.6585 26.4128 49.2873 26.0619 49.7315C25.7109 50.1758 25.214 50.3959 24.5711 50.3919C24.2627 50.3989 23.9567 50.3369 23.6754 50.2104C23.4264 50.0918 23.2105 49.9137 23.0467 49.6919C22.8731 49.45 22.7472 49.1773 22.6759 48.8882C22.5914 48.5471 22.5504 48.1966 22.5539 47.8452ZM23.532 47.8452C23.53 48.0738 23.5504 48.3022 23.593 48.5268C23.6258 48.7143 23.6892 48.8951 23.7807 49.0621C23.8566 49.2043 23.9674 49.325 24.1026 49.4128C24.2432 49.4996 24.4059 49.5436 24.5711 49.5394C24.7219 49.544 24.8713 49.5096 25.005 49.4396C25.1386 49.3697 25.252 49.2664 25.334 49.1399C25.5151 48.8745 25.6056 48.443 25.6056 47.8452C25.6067 47.6222 25.5873 47.3997 25.5476 47.1803C25.5155 46.9927 25.4548 46.8112 25.3676 46.642C25.2938 46.4968 25.184 46.3729 25.0487 46.2821C24.9045 46.1917 24.7366 46.1466 24.5665 46.1525C24.4147 46.148 24.2643 46.1833 24.1304 46.255C23.9966 46.3267 23.8839 46.4323 23.8036 46.5612C23.6225 46.8346 23.532 47.2626 23.532 47.8452Z"
          fill="#FBFBFB"/>
    <path d="M30.4518 46.5368C30.4522 46.6596 30.4373 46.782 30.4076 46.9012C30.3793 47.0197 30.3302 47.1323 30.2626 47.2337C30.1924 47.3377 30.1034 47.4277 30.0002 47.499C29.8815 47.5807 29.7485 47.6392 29.608 47.6713V47.7125C29.7414 47.7349 29.8712 47.7749 29.994 47.8315C30.114 47.8864 30.2215 47.9653 30.3099 48.0632C30.4041 48.1663 30.4767 48.2871 30.5235 48.4186C30.5785 48.5784 30.6049 48.7467 30.6013 48.9157C30.609 49.1338 30.5603 49.3501 30.4598 49.5438C30.3592 49.7375 30.2104 49.902 30.0276 50.0213C29.8459 50.1407 29.6452 50.2284 29.4341 50.2805C29.2094 50.3363 28.9788 50.3644 28.7474 50.3644H28.4529C28.3324 50.3644 28.2027 50.3644 28.0653 50.3537C27.928 50.3431 27.7876 50.3354 27.6442 50.3217C27.5127 50.3096 27.3822 50.2887 27.2536 50.2592V45.4312C27.3405 45.4175 27.4382 45.4037 27.5496 45.39C27.661 45.3763 27.7785 45.3641 27.9051 45.3549C28.0318 45.3458 28.1615 45.3382 28.2957 45.3336C28.43 45.329 28.5612 45.3336 28.694 45.3336C28.9108 45.3335 29.1272 45.3513 29.341 45.387C29.5379 45.4176 29.7286 45.4799 29.9055 45.5715C30.068 45.6588 30.2048 45.7871 30.3023 45.9436C30.409 46.1254 30.4619 46.3337 30.4549 46.5444M28.4712 47.4594C28.5353 47.4594 28.6085 47.4594 28.6925 47.4594C28.762 47.456 28.8313 47.4489 28.9 47.438C29.0638 47.3873 29.2151 47.3026 29.344 47.1894C29.4051 47.1348 29.4534 47.0674 29.4856 46.9921C29.5178 46.9167 29.533 46.8352 29.5302 46.7533C29.5347 46.6475 29.5115 46.5424 29.463 46.4483C29.4195 46.3723 29.3576 46.3083 29.283 46.2623C29.2046 46.2147 29.1183 46.1816 29.0282 46.1647C28.9276 46.1457 28.8254 46.1365 28.723 46.1372C28.6055 46.1372 28.4972 46.1372 28.398 46.1449C28.3209 46.1471 28.2439 46.1537 28.1676 46.1647V47.4594H28.4712ZM28.7657 49.5653C28.8749 49.5656 28.9836 49.5518 29.0892 49.5242C29.1886 49.4993 29.2823 49.4559 29.3654 49.3961C29.4453 49.3386 29.5115 49.2641 29.5592 49.178C29.6087 49.0841 29.6339 48.9792 29.6324 48.873C29.6388 48.7469 29.6091 48.6215 29.547 48.5116C29.4894 48.4256 29.4112 48.3554 29.3196 48.3072C29.2215 48.2583 29.1157 48.2269 29.0068 48.2142C28.8913 48.2008 28.7752 48.1942 28.6589 48.1944H28.1737V49.5303C28.2081 49.5425 28.244 49.5497 28.2805 49.5516C28.3278 49.5516 28.3812 49.5516 28.4331 49.5607H28.607C28.6665 49.5607 28.7184 49.5607 28.7596 49.5607"
          fill="#FBFBFB"/>
    <path d="M34.4862 50.093C34.3205 50.209 34.1315 50.2876 33.9323 50.3232C33.7054 50.3693 33.4743 50.3923 33.2426 50.3919C32.9663 50.3931 32.6918 50.3472 32.4309 50.2561C32.1743 50.1646 31.9432 50.0136 31.7564 49.8154C31.5462 49.5881 31.3875 49.3181 31.291 49.024C31.1662 48.6438 31.1074 48.2452 31.1171 47.8452C31.1058 47.4346 31.1716 47.0254 31.3109 46.639C31.4208 46.3448 31.5925 46.0775 31.8144 45.8551C32.0095 45.6638 32.2445 45.518 32.5026 45.4281C32.7481 45.3434 33.0058 45.2996 33.2655 45.2985C33.4967 45.2955 33.7276 45.3144 33.9552 45.3549C34.1145 45.3832 34.2704 45.4277 34.4206 45.4876L34.2375 46.2989C34.12 46.2439 33.9951 46.2064 33.8667 46.1876C33.695 46.1624 33.5215 46.1506 33.3479 46.1525C33.1752 46.1467 33.0034 46.181 32.8462 46.2527C32.6889 46.3244 32.5504 46.4316 32.4416 46.5658C32.2127 46.8423 32.0982 47.2703 32.0982 47.8498C32.0959 48.0821 32.1235 48.3138 32.1806 48.5391C32.2267 48.7316 32.3107 48.9131 32.4278 49.0728C32.5367 49.2181 32.6784 49.3357 32.8413 49.4159C33.0204 49.5011 33.2168 49.5434 33.4151 49.5394C33.5897 49.5433 33.764 49.5217 33.9323 49.4754C34.0609 49.4383 34.184 49.3844 34.2986 49.3153L34.4862 50.093Z"
          fill="#FBFBFB"/>
    <path d="M36.2379 48.202H35.9938V50.2943H35.063V45.3961H35.9938V47.5661L36.2105 47.467L37.5212 45.3961H38.5802L37.1947 47.4533L36.8285 47.7202L37.2084 47.9931L38.7907 50.2943H37.6433L36.2379 48.202Z"
          fill="#FBFBFB"/>
    <path d="M38.9464 47.8452C38.9464 47.0318 39.1208 46.4036 39.4698 45.9603C39.8187 45.5171 40.3166 45.2965 40.9636 45.2985C41.2701 45.2916 41.5743 45.3542 41.8532 45.4815C42.1031 45.5992 42.3201 45.7768 42.4849 45.9984C42.6604 46.2401 42.7874 46.5136 42.8587 46.8036C42.9433 47.1443 42.9843 47.4942 42.9808 47.8452C42.9808 48.6585 42.8053 49.2873 42.4544 49.7315C42.1034 50.1758 41.6065 50.3959 40.9636 50.3918C40.6547 50.3987 40.3482 50.3367 40.0664 50.2104C39.8179 50.0916 39.6025 49.9135 39.4392 49.6919C39.2656 49.45 39.1398 49.1772 39.0684 48.8882C38.9839 48.5471 38.9429 48.1966 38.9464 47.8452ZM39.9245 47.8452C39.9225 48.0738 39.9429 48.3021 39.9855 48.5268C40.0183 48.7143 40.0817 48.8951 40.1732 49.0621C40.2491 49.2043 40.3599 49.3249 40.4951 49.4128C40.6357 49.4996 40.7984 49.5436 40.9636 49.5394C41.1144 49.544 41.2638 49.5096 41.3975 49.4396C41.5311 49.3696 41.6445 49.2664 41.7265 49.1398C41.9066 48.8745 41.9981 48.4429 41.9981 47.8452C41.9992 47.6222 41.9798 47.3997 41.9401 47.1803C41.9073 46.9929 41.8466 46.8114 41.7601 46.642C41.6863 46.4967 41.5765 46.3728 41.4412 46.2821C41.297 46.1917 41.1291 46.1465 40.959 46.1525C40.8072 46.1479 40.6568 46.1833 40.5229 46.255C40.3891 46.3267 40.2764 46.4323 40.1961 46.5611C40.014 46.8346 39.9234 47.2626 39.9245 47.8452Z"
          fill="#FBFBFB"/>
    <path d="M43.6461 45.3961H46.4644V46.2501H44.5769V47.3908H46.2935V48.2447H44.5769V49.4403H46.498V50.2943H43.6461V45.3961Z"
          fill="#FBFBFB"/>
    <path d="M8.94302 58.9026H8.48526L8.35709 57.8123H5.1207L4.991 58.9026H4.53323V57.2053H5.03983C5.10909 57.0977 5.16932 56.9844 5.21988 56.8668C5.31333 56.6446 5.38636 56.4144 5.43808 56.179C5.52142 55.8168 5.58459 55.4503 5.62729 55.0811C5.68706 54.5606 5.72016 54.0373 5.72647 53.5134H8.32047V57.2053H8.9476L8.94302 58.9026ZM7.62772 57.2114V54.1143H6.33987C6.32919 54.3552 6.30936 54.616 6.28037 54.8996C6.25137 55.1833 6.21323 55.4669 6.1644 55.7505C6.118 56.0212 6.05636 56.289 5.97977 56.5527C5.91573 56.7782 5.82935 56.9969 5.72189 57.2053L7.62772 57.2114Z"
          fill="#FBFBFB"/>
    <path d="M9.55338 55.6591C9.55338 54.9332 9.70596 54.3766 10.0386 53.9908C10.3712 53.605 10.8275 53.4113 11.4333 53.4113C11.7201 53.4022 12.0057 53.4542 12.271 53.5638C12.5024 53.6648 12.7049 53.8221 12.86 54.0213C13.0211 54.2332 13.1378 54.4754 13.2033 54.7334C13.2812 55.0347 13.3192 55.3449 13.3162 55.656C13.3162 56.3829 13.1539 56.9395 12.8294 57.3258C12.5049 57.7122 12.0395 57.9053 11.4333 57.9053C11.1469 57.9144 10.8618 57.8624 10.5971 57.7528C10.3656 57.6518 10.1632 57.4946 10.0081 57.2953C9.8486 57.083 9.7334 56.8409 9.66934 56.5832C9.59321 56.2811 9.55628 55.9705 9.55948 55.6591M10.2721 55.6591C10.2713 55.8697 10.2928 56.0797 10.3362 56.2858C10.3728 56.4709 10.4409 56.6483 10.5376 56.8104C10.6247 56.9567 10.7455 57.0801 10.89 57.1703C11.0536 57.2659 11.2408 57.3135 11.4302 57.3075C12.2094 57.3136 12.599 56.7642 12.599 55.6591C12.6 55.4459 12.5785 55.2333 12.5349 55.0247C12.4983 54.8396 12.4302 54.6622 12.3335 54.5001C12.2433 54.3544 12.1192 54.2325 11.9719 54.1448C11.8068 54.0521 11.6195 54.0063 11.4302 54.0121C10.652 54.006 10.2629 54.555 10.2629 55.6591"
          fill="#FBFBFB"/>
    <path d="M16.6563 54.1142H15.4112C15.3944 54.3551 15.3761 54.6144 15.3593 54.8919C15.3426 55.1695 15.3166 55.447 15.2815 55.7245C15.2464 56.0021 15.2022 56.2674 15.1457 56.5221C15.0955 56.7536 15.0219 56.9795 14.926 57.1961C14.8494 57.3724 14.7384 57.5315 14.5995 57.6643C14.475 57.7793 14.3111 57.842 14.1417 57.8397C14.0468 57.841 13.9519 57.8354 13.8579 57.8229C13.7836 57.814 13.711 57.794 13.6427 57.7634L13.7465 57.1885C13.8185 57.2116 13.8937 57.2229 13.9693 57.2221C14.028 57.2196 14.0856 57.2047 14.1382 57.1785C14.1908 57.1522 14.2372 57.1151 14.2744 57.0696C14.3954 56.9055 14.4778 56.7163 14.5155 56.516C14.5995 56.1469 14.6576 55.7724 14.6895 55.3952C14.7353 54.9143 14.7668 54.2875 14.7841 53.5149H17.3445V57.8076H16.6563V54.1142Z"
          fill="#FBFBFB"/>
    <path d="M21.176 54.1143H19.3541V57.8062H18.6674V53.5134H21.176V54.1143Z" fill="#FBFBFB"/>
    <path d="M21.4583 55.659C21.4583 54.9332 21.62 54.3771 21.9435 53.9907C22.267 53.6044 22.7324 53.4113 23.3397 53.4113C23.6266 53.4024 23.9121 53.4543 24.1774 53.5638C24.4084 53.6648 24.6104 53.8221 24.7649 54.0212C24.9271 54.2325 25.044 54.4749 25.1082 54.7334C25.1862 55.0346 25.2241 55.3448 25.2211 55.656C25.2211 56.3829 25.0594 56.9395 24.7359 57.3258C24.4109 57.7132 23.947 57.9053 23.3397 57.9053C23.0528 57.9143 22.7673 57.8624 22.502 57.7528C22.2708 57.6514 22.0684 57.4942 21.913 57.2953C21.7519 57.0834 21.6351 56.8412 21.5697 56.5832C21.493 56.2812 21.4556 55.9706 21.4583 55.659ZM22.1709 55.659C22.1699 55.8697 22.1919 56.0799 22.2365 56.2858C22.2724 56.4711 22.3406 56.6486 22.4379 56.8104C22.5276 56.9572 22.6511 57.0806 22.798 57.1703C22.9622 57.2657 23.1498 57.3133 23.3397 57.3075C24.1179 57.3136 24.5075 56.7641 24.5085 55.659C24.5098 55.4458 24.4878 55.2331 24.4429 55.0247C24.4063 54.8396 24.3381 54.6621 24.2415 54.5001C24.152 54.3542 24.0285 54.2323 23.8814 54.1448C23.7162 54.0522 23.529 54.0064 23.3397 54.0121C22.5595 54.006 22.1699 54.555 22.1709 55.659Z"
          fill="#FBFBFB"/>
    <path d="M28.5612 54.1143H27.3161C27.2993 54.3552 27.281 54.6144 27.2643 54.892C27.2475 55.1695 27.2215 55.4471 27.188 55.7246C27.1544 56.0022 27.1071 56.2675 27.0506 56.5222C27.0011 56.7539 26.9275 56.9798 26.8309 57.1962C26.7554 57.373 26.6443 57.5324 26.5044 57.6644C26.3803 57.7799 26.2162 57.8427 26.0466 57.8397C25.9517 57.8411 25.8569 57.8355 25.7628 57.8229C25.689 57.8139 25.617 57.7939 25.5492 57.7635L25.6514 57.1886C25.7239 57.2118 25.7996 57.2231 25.8757 57.2221C25.9345 57.2199 25.9921 57.2051 26.0448 57.1788C26.0974 57.1525 26.1438 57.1153 26.1809 57.0696C26.3031 56.9063 26.3856 56.7168 26.422 56.5161C26.5067 56.1446 26.5639 55.7675 26.5929 55.3876C26.6386 54.9067 26.6702 54.28 26.6875 53.5073H29.2479V57.8001H28.5597L28.5612 54.1143Z"
          fill="#FBFBFB"/>
    <path d="M33.7065 57.4631C33.5128 57.6116 33.2928 57.7223 33.058 57.7894C32.7893 57.8701 32.51 57.9102 32.2295 57.9084C31.9386 57.9175 31.6491 57.8655 31.3795 57.7559C31.147 57.6553 30.9434 57.498 30.7875 57.2984C30.6257 57.0878 30.5084 56.8466 30.4427 56.5893C30.3646 56.2865 30.3271 55.9747 30.3313 55.6621C30.3313 54.9301 30.4945 54.371 30.8211 53.9847C31.1476 53.5984 31.6145 53.4077 32.2218 53.4128C32.4184 53.4131 32.6143 53.4346 32.8062 53.4769C33.0077 53.5168 33.1959 53.607 33.3533 53.7389C33.5106 53.8709 33.6321 54.0404 33.7065 54.2317C33.8165 54.509 33.8684 54.8059 33.8591 55.104C33.8574 55.3138 33.8406 55.5233 33.8087 55.7308H31.0439C31.0408 55.9563 31.0669 56.1813 31.1217 56.4002C31.1666 56.5795 31.2487 56.7473 31.3628 56.8928C31.476 57.0294 31.6226 57.1345 31.7885 57.1978C31.9926 57.2745 32.2098 57.3108 32.4278 57.3045C32.627 57.3039 32.8247 57.2693 33.0122 57.2023C33.1729 57.1523 33.3219 57.0703 33.4502 56.9614L33.7065 57.4631ZM32.2295 54.0121C31.9354 53.9974 31.6463 54.092 31.4177 54.2775C31.2148 54.4559 31.0927 54.7578 31.053 55.1924H33.1892C33.1892 54.7583 33.1063 54.4533 32.9405 54.2775C32.8477 54.1873 32.737 54.1176 32.6156 54.0727C32.4942 54.0278 32.3648 54.0087 32.2356 54.0167"
          fill="#FBFBFB"/>
    <path d="M37.6753 54.1143H36.328V57.8062H35.6398V54.1143H34.2924V53.5134H37.6753V54.1143Z" fill="#FBFBFB"/>
    <path d="M41.0338 55.2656L41.0613 54.7334H41.0338L40.6828 55.2824L38.7495 57.8062H38.3543V53.5134H39.041V56.1318L39.0166 56.6381H39.0501L39.3858 56.1058L41.3176 53.5134H41.722V57.8062H41.0338V55.2656Z"
          fill="#FBFBFB"/>
    <path d="M46.1806 57.463C45.9855 57.6121 45.7639 57.7228 45.5275 57.7894C45.2587 57.8698 44.9795 57.9099 44.6989 57.9083C44.4076 57.9174 44.1176 57.8655 43.8475 57.7558C43.615 57.6553 43.4114 57.498 43.2555 57.2983C43.0935 57.088 42.9767 56.8466 42.9121 56.5892C42.8335 56.2865 42.7956 55.9748 42.7992 55.6621C42.7992 54.9301 42.9625 54.3709 43.289 53.9846C43.6156 53.5983 44.0825 53.4067 44.6898 53.4097C44.8863 53.41 45.0823 53.4314 45.2742 53.4737C45.4755 53.5145 45.6635 53.6049 45.821 53.7368C45.9785 53.8686 46.1005 54.0377 46.176 54.2286C46.286 54.5059 46.3379 54.8028 46.3286 55.1009C46.3263 55.3108 46.309 55.5202 46.2767 55.7276H43.5179C43.5151 55.9531 43.5408 56.178 43.5942 56.3971C43.6385 56.5766 43.7207 56.7445 43.8353 56.8896C43.9482 57.026 44.0943 57.131 44.2595 57.1946C44.4642 57.2711 44.6819 57.3074 44.9004 57.3014C45.0996 57.3009 45.2972 57.2663 45.4848 57.1992C45.6455 57.1492 45.7944 57.0672 45.9227 56.9583L46.1806 57.463ZM44.7035 54.0121C44.4094 53.9971 44.1202 54.0916 43.8918 54.2774C43.6873 54.4558 43.5652 54.7578 43.5271 55.1924H45.6633C45.6633 54.7583 45.5799 54.4533 45.4131 54.2774C45.3205 54.1873 45.2101 54.1176 45.0889 54.0727C44.9678 54.0277 44.8386 54.0087 44.7096 54.0166"
          fill="#FBFBFB"/>
    <path d="M24.5253 10.0095C24.4322 9.95159 24.5512 10.0934 24.4612 10.0187C23.9424 9.5612 23.6586 10.0324 23.3076 10.4762C23.4835 10.5345 23.6325 10.6541 23.7275 10.8131C23.8225 10.9721 23.8571 11.16 23.8249 11.3423C23.7826 11.5302 23.6758 11.6972 23.523 11.8145C23.3703 11.9318 23.1812 11.9919 22.9887 11.9844C22.8382 11.9844 22.6938 12.0441 22.5874 12.1505C22.4809 12.2569 22.4211 12.4012 22.4211 12.5516C22.4224 13.3985 22.2259 14.2339 21.8474 14.9916C22.2404 14.9667 22.6304 15.0741 22.9552 15.2966C23.2821 14.587 23.4795 13.8247 23.5381 13.0457C23.8253 12.9745 24.0917 12.8369 24.3159 12.6438C24.5401 12.4507 24.7157 12.2077 24.8286 11.9343C24.9414 11.6609 24.9884 11.3648 24.9657 11.0699C24.9429 10.7751 24.8512 10.4896 24.6977 10.2368C24.6353 10.1644 24.5777 10.088 24.5253 10.008"
          fill="#AB0A3D"/>
    <path d="M10.9038 11.9889C10.7115 11.9965 10.5226 11.9367 10.3699 11.8197C10.2172 11.7027 10.1102 11.536 10.0676 11.3484C10.0434 11.2044 10.0603 11.0564 10.1164 10.9215C10.1726 10.7866 10.2656 10.6703 10.385 10.5859L10.0234 10.3542L9.7609 10.2017C9.60831 10.2291 9.44352 10.2489 9.39011 10.2581C9.33671 10.2672 9.23753 10.2825 9.17191 10.2901C8.95708 10.6677 8.87794 11.1073 8.94761 11.536C9.01278 11.8976 9.17974 12.233 9.42892 12.5031C9.6781 12.7732 9.99916 12.9667 10.3545 13.0609C10.4144 13.8347 10.6112 14.5916 10.9358 15.2965C11.1807 14.9853 11.4989 14.7396 11.862 14.5813C11.6034 13.9375 11.4708 13.25 11.4714 12.5562C11.4716 12.4816 11.4571 12.4078 11.4286 12.3389C11.4002 12.2699 11.3584 12.2073 11.3056 12.1546C11.2529 12.1019 11.1902 12.0601 11.1212 12.0317C11.0523 12.0032 10.9784 11.9887 10.9038 11.9889Z"
          fill="#AB0A3D"/>
    <path d="M14.2607 10.2078C14.1103 10.2082 13.9661 10.2681 13.8598 10.3744C13.7534 10.4807 13.6935 10.6247 13.6931 10.775V11.446C13.6931 11.5965 13.7529 11.7408 13.8593 11.8472C13.9658 11.9535 14.1102 12.0133 14.2607 12.0133C14.4113 12.0133 14.5556 11.9535 14.6621 11.8472C14.7685 11.7408 14.8283 11.5965 14.8283 11.446V10.775C14.8279 10.6247 14.768 10.4807 14.6616 10.3744C14.5553 10.2681 14.4111 10.2082 14.2607 10.2078Z"
          fill="#AB0A3D"/>
    <path d="M19.6318 12.0133C19.7821 12.0129 19.9261 11.953 20.0322 11.8466C20.1383 11.7403 20.1979 11.5962 20.1979 11.446V10.775C20.1979 10.6246 20.1381 10.4803 20.0317 10.3739C19.9252 10.2675 19.7808 10.2078 19.6303 10.2078C19.4797 10.2078 19.3354 10.2675 19.2289 10.3739C19.1225 10.4803 19.0627 10.6246 19.0627 10.775V11.446C19.0631 11.5964 19.123 11.7404 19.2294 11.8467C19.3357 11.953 19.4799 12.0129 19.6303 12.0133"
          fill="#AB0A3D"/>
    <path d="M12.3137 8.31376C12.2249 8.31224 12.1362 8.30562 12.0482 8.29394C11.9609 8.28289 11.8743 8.26711 11.7888 8.24666C11.7886 8.36077 11.7437 8.47026 11.6637 8.55165L10.565 9.64657C10.481 9.70868 10.3774 9.73858 10.2732 9.73081C10.1689 9.72305 10.0709 9.67815 9.997 9.60428C9.92308 9.53041 9.87815 9.43247 9.87038 9.32828C9.86262 9.2241 9.89253 9.12059 9.95468 9.03659L11.0075 7.96912C10.9862 7.95692 10.9618 7.94777 10.9419 7.93557C10.6205 7.73647 10.3403 7.47764 10.1164 7.1731L9.10324 8.18262C8.95185 8.33391 8.83176 8.51353 8.74983 8.7112C8.6679 8.90888 8.62573 9.12075 8.62573 9.33472C8.62573 9.54868 8.6679 9.76055 8.74983 9.95823C8.83176 10.1559 8.95185 10.3355 9.10324 10.4868C9.25463 10.6381 9.43435 10.7581 9.63215 10.84C9.82995 10.9219 10.0419 10.964 10.256 10.964C10.4701 10.964 10.6821 10.9219 10.8799 10.84C11.0777 10.7581 11.2575 10.6381 11.4088 10.4868L12.5075 9.38885C12.6594 9.23816 12.7797 9.05873 12.8614 8.86106C12.9432 8.66338 12.9847 8.4514 12.9835 8.23751C12.7648 8.294 12.5396 8.32168 12.3137 8.31986"
          fill="#AB0A3D"/>
    <path d="M21.2477 8.31376C21.3365 8.31224 21.4252 8.30562 21.5132 8.29394C21.6005 8.28289 21.6871 8.26711 21.7726 8.24666C21.7728 8.36077 21.8177 8.47026 21.8977 8.55165L22.9964 9.64962C23.0337 9.70007 23.0815 9.74187 23.1364 9.77218C23.1914 9.80249 23.2522 9.8206 23.3148 9.82526C23.3774 9.82992 23.4403 9.82103 23.4992 9.79919C23.558 9.77735 23.6115 9.74308 23.6558 9.69872C23.7002 9.65436 23.7345 9.60095 23.7564 9.54214C23.7782 9.48332 23.7871 9.42049 23.7825 9.35792C23.7778 9.29536 23.7597 9.23454 23.7293 9.17961C23.699 9.12468 23.6572 9.07694 23.6067 9.03964L22.5539 7.96912C22.5752 7.95692 22.5996 7.94777 22.6195 7.93557C22.9409 7.73647 23.2211 7.47764 23.445 7.1731L24.4582 8.18414C24.6095 8.33544 24.7296 8.51505 24.8116 8.71273C24.8935 8.91041 24.9357 9.12228 24.9357 9.33624C24.9357 9.55021 24.8935 9.76208 24.8116 9.95976C24.7296 10.1574 24.6095 10.337 24.4582 10.4883C24.3068 10.6396 24.127 10.7597 23.9292 10.8415C23.7314 10.9234 23.5194 10.9656 23.3054 10.9656C23.0913 10.9656 22.8793 10.9234 22.6815 10.8415C22.4837 10.7597 22.3039 10.6396 22.1525 10.4883L21.0539 9.39038C20.902 9.23968 20.7817 9.06026 20.7 8.86258C20.6182 8.6649 20.5767 8.45293 20.5778 8.23904C20.7966 8.29552 21.0218 8.32321 21.2477 8.32139"
          fill="#AB0A3D"/>
    <path d="M16.9936 24.2236C13.0507 24.2236 9.78836 19.208 9.78836 16.6491C9.78836 15.1882 10.8565 14.6957 11.8071 14.3464C12.5151 13.2485 15.5058 12.4418 16.3084 12.4418H17.0927C18.5072 12.4418 21.2126 13.2957 21.678 14.47H21.6856C22.9781 14.7612 24.1988 15.0342 24.1988 16.6476C24.1988 19.2065 20.9364 24.222 16.9936 24.222M12.7806 14.9076C12.7619 15.004 12.7184 15.0939 12.6545 15.1685C12.5906 15.2431 12.5084 15.2998 12.4159 15.3331C11.1952 15.7738 10.9221 16.0071 10.9221 16.6491C10.9221 18.7154 13.7938 23.089 16.992 23.089C20.1903 23.089 23.062 18.7154 23.062 16.6491C23.062 16.0239 22.8804 15.9034 21.4354 15.5817L21.0509 15.4947C20.9259 15.4661 20.8144 15.3958 20.7345 15.2955C20.6547 15.1953 20.6113 15.0709 20.6114 14.9427V14.8619C20.3947 14.4456 18.5545 13.5763 17.0912 13.5763H16.3069C15.4448 13.5763 13.0843 14.473 12.7806 14.9076Z"
          fill="#AB0A3D"/>
    <path d="M19.7096 15.7465C19.662 15.6599 19.5926 15.5873 19.5083 15.5357C19.424 15.4841 19.3278 15.4553 19.229 15.4521H14.7734C14.6756 15.452 14.5794 15.4771 14.4941 15.525C14.4089 15.5729 14.3375 15.642 14.2868 15.7256C14.2362 15.8092 14.208 15.9045 14.205 16.0022C14.202 16.0999 14.2244 16.1967 14.2699 16.2832C14.8695 17.4193 15.8736 18.0979 16.96 18.0979C18.0464 18.0979 19.026 17.4468 19.7066 16.3107C19.756 16.225 19.7823 16.1279 19.7828 16.029C19.7833 15.9301 19.7581 15.8327 19.7096 15.7465ZM15.9407 16.5852H17.993C17.704 16.823 17.3412 16.9531 16.9669 16.9531C16.5925 16.9531 16.2297 16.823 15.9407 16.5852Z"
          fill="#AB0A3D"/>
    <path d="M22.0946 5.52917C21.5636 5.52917 21.2508 5.50935 21.0707 5.49562L18.9604 1.3142C18.9154 1.2256 18.8507 1.1484 18.7714 1.08843C18.6921 1.02846 18.6002 0.987293 18.5027 0.968035C18.4063 0.948226 18.3067 0.95013 18.2111 0.973607C18.1156 0.997084 18.0265 1.04154 17.9503 1.10376L16.7754 2.0721L15.6065 1.10681C15.5306 1.04406 15.4416 0.999049 15.346 0.975042C15.2505 0.951035 15.1508 0.948641 15.0542 0.968035C14.9566 0.987293 14.8647 1.02846 14.7854 1.08843C14.7061 1.1484 14.6415 1.2256 14.5964 1.3142L12.4922 5.488C12.3122 5.50172 11.9978 5.51697 11.4684 5.52155C10.3224 5.52917 9.70902 6.45329 9.71207 7.31794C9.70668 7.54925 9.74876 7.7792 9.8357 7.99363C9.92265 8.20806 10.0526 8.40242 10.2176 8.56473C10.3826 8.72704 10.5791 8.85386 10.795 8.93737C11.0109 9.02088 11.2416 9.05931 11.4729 9.05029H22.09C22.3213 9.05931 22.5521 9.02088 22.768 8.93737C22.9839 8.85386 23.1804 8.72704 23.3453 8.56473C23.5103 8.40242 23.6403 8.20806 23.7272 7.99363C23.8142 7.7792 23.8562 7.54925 23.8509 7.31794C23.8509 6.45329 23.2405 5.52917 22.0946 5.52155M22.0946 7.73883H11.4729C11.1037 7.73883 11.0258 7.50704 11.0243 7.31337C11.0191 7.25092 11.0272 7.18807 11.048 7.12897C11.0689 7.06986 11.102 7.01584 11.1453 6.97046C11.1885 6.92508 11.2409 6.88937 11.299 6.86568C11.357 6.84199 11.4194 6.83085 11.4821 6.83301C12.7806 6.82233 13.362 6.81776 13.542 6.3252L15.4051 2.63176L16.3481 3.40949C16.4676 3.51467 16.6214 3.57269 16.7807 3.57269C16.94 3.57269 17.0938 3.51467 17.2133 3.40949L18.1578 2.63176L20.0224 6.31757C20.1903 6.78726 20.6908 6.81623 22.0839 6.82691C22.1466 6.82475 22.209 6.83589 22.267 6.85958C22.3251 6.88327 22.3775 6.91898 22.4207 6.96436C22.4639 7.00974 22.4971 7.06376 22.5179 7.12287C22.5388 7.18197 22.5469 7.24482 22.5417 7.30727C22.5417 7.50094 22.4623 7.73273 22.093 7.73273"
          fill="#AB0A3D"/>
    <path d="M7.41562 70.4922H4.91623V75.3324H4.27383V69.9188H8.05801V75.3324H7.41562V70.4922Z" fill="#585858"/>
    <path d="M9.31076 71.4667H9.73648L9.85245 71.9242H9.88449C9.99764 71.7483 10.1556 71.6056 10.3423 71.5109C10.5428 71.4122 10.7642 71.363 10.9877 71.3676C11.5034 71.3676 11.888 71.5201 12.1413 71.8251C12.3946 72.1301 12.5207 72.6277 12.5197 73.318C12.5236 73.6151 12.4808 73.911 12.393 74.1949C12.3177 74.437 12.1953 74.6619 12.0329 74.8567C11.8792 75.0361 11.6874 75.1788 11.4714 75.2745C11.2413 75.3765 10.9922 75.4285 10.7405 75.427C10.5871 75.4311 10.4337 75.4194 10.2827 75.392C10.1589 75.3649 10.0382 75.325 9.92264 75.273V76.8818H9.31076V71.4667ZM10.8748 71.9151C10.6489 71.9026 10.4267 71.9756 10.2522 72.1194C10.0829 72.2883 9.97032 72.5058 9.93027 72.7416V74.66C10.0252 74.734 10.1327 74.7903 10.2477 74.8262C10.4015 74.8692 10.561 74.8887 10.7207 74.8841C10.8834 74.8901 11.0451 74.8571 11.1924 74.7878C11.3397 74.7186 11.4684 74.6152 11.5675 74.4861C11.7771 74.2208 11.8788 73.8304 11.8727 73.315C11.8742 73.1215 11.8563 72.9284 11.8193 72.7385C11.7916 72.5826 11.7352 72.4332 11.653 72.2978C11.5765 72.1801 11.4716 72.0836 11.3478 72.0172C11.2023 71.9458 11.0414 71.9112 10.8794 71.9166"
          fill="#585858"/>
    <path d="M13.2811 73.3988C13.2811 72.7441 13.4271 72.2429 13.719 71.8952C14.011 71.5475 14.4301 71.3737 14.9763 71.3737C15.2349 71.3677 15.4918 71.4166 15.7301 71.517C15.9382 71.6073 16.1206 71.7477 16.2611 71.9257C16.4049 72.1171 16.5087 72.3354 16.5663 72.5677C16.6361 72.8391 16.67 73.1185 16.667 73.3988C16.667 74.0545 16.521 74.5562 16.2291 74.9039C15.9371 75.2516 15.518 75.4255 14.9718 75.4255C14.7101 75.4327 14.45 75.3838 14.2088 75.2821C14.0013 75.1916 13.8194 75.0512 13.6794 74.8734C13.5356 74.682 13.4318 74.4637 13.3742 74.2314C13.3043 73.9595 13.2705 73.6795 13.2735 73.3988M13.9159 73.3988C13.9155 73.5889 13.935 73.7785 13.9738 73.9645C14.0069 74.1309 14.0683 74.2902 14.1554 74.4358C14.2387 74.5695 14.3527 74.6814 14.4881 74.7621C14.6361 74.8481 14.8052 74.8909 14.9763 74.8856C15.6767 74.8856 16.0292 74.3961 16.0292 73.4003C16.0297 73.2082 16.0103 73.0166 15.9712 72.8285C15.9376 72.6621 15.8757 72.5027 15.7881 72.3573C15.7091 72.2251 15.5991 72.1142 15.4677 72.034C15.3192 71.951 15.151 71.9099 14.9809 71.915C14.279 71.9089 13.9281 72.4035 13.9281 73.3988"
          fill="#585858"/>
    <path d="M20.471 75.0244C20.2962 75.1575 20.098 75.2568 19.8866 75.3172C19.6443 75.391 19.3922 75.4275 19.1389 75.4255C18.8774 75.4313 18.6176 75.3824 18.376 75.2821C18.1668 75.1922 17.9833 75.0518 17.8419 74.8734C17.6981 74.6832 17.5943 74.4659 17.5368 74.2345C17.4665 73.9616 17.4326 73.6806 17.4361 73.3988C17.4361 72.74 17.5831 72.2373 17.877 71.8906C18.17 71.546 18.5912 71.3737 19.1374 71.3737C19.3145 71.3733 19.4911 71.3928 19.6638 71.4316C19.8456 71.4678 20.0153 71.5491 20.1574 71.6679C20.2995 71.7868 20.4094 71.9394 20.4771 72.1117C20.5736 72.362 20.6182 72.6291 20.6084 72.8971C20.607 73.0861 20.5912 73.2747 20.5611 73.4613H18.0708C18.068 73.6668 18.0916 73.8718 18.141 74.0713C18.1806 74.233 18.2545 74.3844 18.3577 74.5151C18.4591 74.6396 18.591 74.7358 18.7407 74.7941C18.925 74.863 19.1208 74.8956 19.3175 74.8902C19.497 74.8897 19.6751 74.8583 19.8439 74.7972C19.9887 74.753 20.1228 74.6793 20.2376 74.5806L20.471 75.0244ZM19.1389 71.915C18.874 71.9013 18.6135 71.9867 18.408 72.1544C18.2249 72.3151 18.1156 72.588 18.08 72.9733H19.998C19.998 72.5829 19.9232 72.3085 19.7737 72.1499C19.6902 72.0685 19.5906 72.0056 19.4813 71.9651C19.3719 71.9247 19.2553 71.9076 19.1389 71.915Z"
          fill="#585858"/>
    <path d="M22.5523 73.5925H22.1953V75.3324H21.5773V71.4667H22.1953V73.2143L22.5294 73.106L23.7669 71.4667H24.4414L23.2405 73.0206L22.9155 73.2753L23.3183 73.5848L24.6107 75.3324H23.8448L22.5523 73.5925Z"
          fill="#585858"/>
    <path d="M27.7449 72.0081H26.5303V75.3325H25.9108V72.0081H24.6962V71.4652H27.7449V72.0081Z" fill="#585858"/>
    <path d="M34.4084 71.6984L34.4847 70.8856H34.4466L34.1521 71.6283L32.7437 74.0728H32.5514L31.0576 71.6207L30.7784 70.8856H30.7402L30.8485 71.6908V75.3324H30.2443V69.9188H30.7249L32.4187 72.6881L32.675 73.292H32.6903L32.9298 72.6729L34.5473 69.9188H35.0508V75.3324H34.4084V71.6984Z"
          fill="#585858"/>
    <path d="M36.6438 73.1289H38.2765C38.2688 72.8082 38.1569 72.4988 37.9576 72.2474C37.8586 72.1351 37.7353 72.0467 37.597 71.9891C37.4587 71.9315 37.3091 71.9061 37.1596 71.915C36.972 71.911 36.7851 71.9393 36.6072 71.9989C36.4729 72.0451 36.3448 72.1076 36.2257 72.1849L36.0091 71.7122C36.1782 71.5997 36.3641 71.5148 36.5599 71.4606C36.7942 71.3976 37.0361 71.3679 37.2786 71.3721C37.8508 71.3721 38.2689 71.549 38.5329 71.9058C38.7968 72.2627 38.9265 72.7583 38.9265 73.3972C38.9265 74.0362 38.774 74.5608 38.4688 74.9054C38.3091 75.0804 38.1125 75.2177 37.8932 75.3074C37.6739 75.3971 37.4374 75.4369 37.2008 75.4239C36.9761 75.4261 36.7518 75.4067 36.5309 75.366C36.3512 75.3363 36.1775 75.2776 36.0167 75.1921L36.1937 74.666C36.3303 74.7382 36.4768 74.7896 36.6286 74.8185C36.7943 74.8561 36.9637 74.8755 37.1336 74.8764C37.8539 74.8764 38.2368 74.4662 38.2841 73.6321H36.6438V73.1289Z"
          fill="#585858"/>
    <path d="M39.9016 71.4667H40.3273L40.4433 71.9242H40.4753C40.5881 71.7479 40.7462 71.6052 40.9331 71.5109C41.1336 71.4122 41.355 71.363 41.5785 71.3676C42.0943 71.3676 42.4788 71.5201 42.7321 71.8251C42.9854 72.1301 43.1115 72.6277 43.1105 73.318C43.1144 73.6151 43.0716 73.911 42.9839 74.1949C42.9085 74.437 42.7861 74.6619 42.6238 74.8567C42.4701 75.0361 42.2782 75.1788 42.0622 75.2745C41.8322 75.3765 41.583 75.4285 41.3313 75.427C41.1779 75.4311 41.0245 75.4194 40.8736 75.392C40.7497 75.3649 40.6291 75.325 40.5135 75.273V76.8818H39.894L39.9016 71.4667ZM41.4656 71.9151C41.2398 71.9026 41.0175 71.9756 40.843 72.1194C40.6737 72.2883 40.5611 72.5058 40.5211 72.7416V74.66C40.616 74.734 40.7235 74.7903 40.8385 74.8262C40.9918 74.8691 41.1508 74.8886 41.31 74.8841C41.4729 74.8902 41.6349 74.8573 41.7825 74.788C41.9301 74.7188 42.0589 74.6153 42.1584 74.4861C42.3679 74.2208 42.4722 73.8304 42.4712 73.315C42.4727 73.1215 42.4548 72.9284 42.4178 72.7385C42.3877 72.5821 42.3287 72.4326 42.2438 72.2978C42.1676 72.1795 42.0626 72.0825 41.9386 72.0157C41.7931 71.9443 41.6322 71.9097 41.4702 71.9151"
          fill="#585858"/>
    <path d="M44.026 71.7519C44.2382 71.627 44.4698 71.5384 44.7111 71.4896C44.9795 71.4331 45.2532 71.4055 45.5275 71.4072C45.7483 71.3991 45.9684 71.4359 46.1745 71.5155C46.3207 71.5755 46.4485 71.6728 46.5453 71.7976C46.6293 71.9113 46.6876 72.0419 46.7162 72.1804C46.744 72.318 46.7583 72.4579 46.7589 72.5982C46.7589 72.9032 46.7507 73.2047 46.7345 73.5025C46.7192 73.7968 46.7116 74.0759 46.7116 74.3382C46.7116 74.5288 46.7192 74.7103 46.7345 74.8796C46.7488 75.0394 46.7774 75.1976 46.8199 75.3523H46.3621L46.1989 74.8109H46.1607C46.1106 74.8877 46.0523 74.9588 45.9868 75.0229C45.9121 75.0961 45.8273 75.1583 45.735 75.2074C45.6275 75.2663 45.5133 75.3119 45.3947 75.3432C45.251 75.3817 45.1026 75.4002 44.9538 75.3981C44.7978 75.3991 44.6429 75.3728 44.496 75.3203C44.3602 75.2719 44.2352 75.1973 44.1283 75.1007C44.0245 75.0038 43.9419 74.8864 43.8856 74.756C43.8237 74.6116 43.7931 74.4557 43.7956 74.2986C43.7884 74.0996 43.837 73.9026 43.936 73.7298C44.0304 73.5752 44.1656 73.4497 44.3266 73.3668C44.5153 73.2691 44.719 73.2036 44.9293 73.1731C45.1867 73.1323 45.447 73.1129 45.7075 73.1152H45.9196C45.9911 73.1151 46.0625 73.1202 46.1333 73.1304C46.1485 72.9779 46.1562 72.8361 46.1562 72.7126C46.1562 72.429 46.0997 72.2307 45.9868 72.1179C45.8723 72.0035 45.6663 71.9471 45.3673 71.9471C45.2723 71.9473 45.1775 71.9539 45.0835 71.9669C44.9843 71.9806 44.8805 71.9989 44.7783 72.0233C44.6746 72.0449 44.5726 72.0739 44.4731 72.1102C44.3856 72.1406 44.3013 72.1795 44.2213 72.2261L44.026 71.7519ZM45.1262 74.8536C45.2572 74.8554 45.3875 74.8358 45.5122 74.7957C45.6175 74.7599 45.7168 74.7085 45.8067 74.6432C45.8849 74.5883 45.9539 74.5214 46.0112 74.445C46.0611 74.3814 46.1017 74.311 46.1317 74.236V73.594L45.9105 73.5834H45.6908C45.5342 73.5831 45.3778 73.5923 45.2223 73.6108C45.084 73.6255 44.9484 73.6594 44.8195 73.7115C44.7115 73.7542 44.616 73.8234 44.5418 73.9127C44.4697 74.0036 44.4324 74.1171 44.4365 74.233C44.4341 74.3169 44.4503 74.4003 44.4837 74.4772C44.5172 74.5542 44.5673 74.6228 44.6303 74.6783C44.7674 74.7973 44.9448 74.8594 45.1262 74.8521"
          fill="#585858"/>
</svg>
