<svg width="21" height="21" viewBox="0 0 21 21" fill="none" xmlns="http://www.w3.org/2000/svg">
    <path fill-rule="evenodd" clip-rule="evenodd"
          d="M12.1481 1.5322C11.6217 1.3252 11.0599 1.22356 10.4944 1.23303C8.10118 1.23606 6.17547 3.17348 6.175 5.55714C6.17205 6.67626 6.60469 7.75262 7.38136 8.5584C8.15824 9.36438 9.21832 9.83634 10.3371 9.87433C10.3631 9.87521 10.3891 9.87447 10.4149 9.87212C10.4709 9.86703 10.531 9.86757 10.5711 9.87159C10.5955 9.87403 10.6201 9.87503 10.6446 9.87459C11.212 9.86435 11.7718 9.74246 12.2921 9.51587C12.8124 9.28927 13.283 8.96242 13.677 8.55396C14.071 8.14551 14.3806 7.66346 14.5883 7.13532C14.796 6.60719 14.8976 6.04332 14.8874 5.47592C14.8772 4.90851 14.7553 4.34868 14.5287 3.82838C14.3021 3.30808 13.9752 2.83751 13.5668 2.44353C13.1583 2.04955 12.6763 1.73988 12.1481 1.5322ZM11.6907 2.69548C11.3153 2.54788 10.9145 2.47565 10.5113 2.48292L10.5 2.48312C8.79609 2.48312 7.425 3.86062 7.425 5.55802L7.42499 5.5598C7.42274 6.35445 7.72987 7.11877 8.28135 7.69092C8.82503 8.25497 9.56411 8.58857 10.3459 8.62372C10.4465 8.61673 10.553 8.61651 10.6531 8.62408C11.0457 8.61302 11.4327 8.52675 11.793 8.36983C12.1628 8.20878 12.4973 7.97647 12.7773 7.68617C13.0573 7.39586 13.2774 7.05324 13.425 6.67787C13.5726 6.30251 13.6449 5.90174 13.6376 5.49846C13.6303 5.09518 13.5437 4.69728 13.3826 4.32748C13.2216 3.95768 12.9893 3.62323 12.699 3.34321C12.4087 3.06319 12.066 2.84309 11.6907 2.69548Z"
          fill="#737372"/>
    <path fill-rule="evenodd" clip-rule="evenodd"
          d="M15.1555 11.805C13.8891 10.9592 12.2506 10.5559 10.6437 10.5559C9.03672 10.5559 7.39498 10.9593 6.12128 11.8038L6.11899 11.8053C4.9812 12.567 4.32916 13.6309 4.32916 14.7736C4.32916 15.9166 4.98137 16.9786 6.11973 17.7362C7.38982 18.5858 9.03019 18.9914 10.6375 18.9914C12.2451 18.9914 13.8858 18.5856 15.156 17.7357C16.2938 16.9741 16.9458 15.9102 16.9458 14.7674C16.9458 13.6245 16.2937 12.5626 15.1555 11.805ZM5.57916 14.7736C5.57916 14.1438 5.93515 13.433 6.81321 12.8448C7.8394 12.1648 9.22631 11.8059 10.6437 11.8059C12.0619 11.8059 13.4442 12.1652 14.4612 12.8444L14.4621 12.8451C15.34 13.4291 15.6958 14.1376 15.6958 14.7674C15.6958 15.3976 15.3395 16.1086 14.4607 16.697C13.4392 17.3804 12.0549 17.7414 10.6375 17.7414C9.22007 17.7414 7.83571 17.3804 6.81422 16.6969L6.81285 16.696C5.935 16.112 5.57916 15.4034 5.57916 14.7736Z"
          fill="#737372"/>
</svg>
