<svg width="20" height="21" viewBox="0 0 20 21" fill="none" xmlns="http://www.w3.org/2000/svg">
    <path d="M18.3333 18.5248L16.6667 16.8582M9.58332 17.6915C10.623 17.6915 11.6524 17.4867 12.6129 17.0889C13.5734 16.691 14.4461 16.1079 15.1813 15.3727C15.9164 14.6376 16.4995 13.7649 16.8974 12.8044C17.2952 11.8439 17.5 10.8145 17.5 9.77482C17.5 8.73519 17.2952 7.70574 16.8974 6.74524C16.4995 5.78475 15.9164 4.91202 15.1813 4.17689C14.4461 3.44176 13.5734 2.85862 12.6129 2.46077C11.6524 2.06292 10.623 1.85815 9.58332 1.85815C7.48369 1.85815 5.47006 2.69223 3.98539 4.17689C2.50073 5.66156 1.66666 7.67519 1.66666 9.77482C1.66666 11.8745 2.50073 13.8881 3.98539 15.3727C5.47006 16.8574 7.48369 17.6915 9.58332 17.6915Z"
          stroke="#737372" stroke-width="1.5" stroke-linecap="round" stroke-linejoin="round"/>
</svg>
